<svg xmlns="http://www.w3.org/2000/svg" viewBox="0 0 64 64">
  <defs>
    <linearGradient id="seal" x1="8" y1="5" x2="56" y2="60" gradientUnits="userSpaceOnUse">
      <stop stop-color="#b74a39"/>
      <stop offset="1" stop-color="#79271f"/>
    </linearGradient>
  </defs>
  <rect x="3" y="3" width="58" height="58" rx="13" fill="url(#seal)"/>
  <rect x="5.5" y="5.5" width="53" height="53" rx="10.5" fill="none" stroke="#d88b77" stroke-opacity=".42"/>
  <g fill="#f5ddc5">
    <circle cx="20" cy="20" r="1.4"/><circle cx="26" cy="20" r="1.4"/><circle cx="32" cy="20" r="1.4"/><circle cx="38" cy="20" r="1.4"/><circle cx="44" cy="20" r="1.4"/>
    <circle cx="20" cy="26" r="1.4"/><circle cx="26" cy="26" r="1.4"/><circle cx="32" cy="26" r="1.4"/><circle cx="38" cy="26" r="1.4"/><circle cx="44" cy="26" r="1.4"/>
    <circle cx="20" cy="32" r="1.4"/><circle cx="26" cy="32" r="1.4"/><circle cx="32" cy="32" r="2"/><circle cx="38" cy="32" r="1.4"/><circle cx="44" cy="32" r="1.4"/>
    <circle cx="20" cy="38" r="1.4"/><circle cx="26" cy="38" r="1.4"/><circle cx="32" cy="38" r="1.4"/><circle cx="38" cy="38" r="1.4"/><circle cx="44" cy="38" r="1.4"/>
    <circle cx="20" cy="44" r="1.4"/><circle cx="26" cy="44" r="1.4"/><circle cx="32" cy="44" r="1.4"/><circle cx="38" cy="44" r="1.4"/><circle cx="44" cy="44" r="1.4"/>
  </g>
  <path d="M16 32h32M32 16v32" stroke="#f5ddc5" stroke-opacity=".22"/>
</svg>
