<svg xmlns="http://www.w3.org/2000/svg" viewBox="0 0 64 64">
  <rect x="3" y="3" width="58" height="58" rx="13" fill="#8e3026"/>
  <g fill="#f5ddc5">
    <circle cx="20" cy="20" r="1.5"/><circle cx="26" cy="20" r="1.5"/><circle cx="32" cy="20" r="1.5"/><circle cx="38" cy="20" r="1.5"/><circle cx="44" cy="20" r="1.5"/>
    <circle cx="20" cy="26" r="1.5"/><circle cx="26" cy="26" r="1.5"/><circle cx="32" cy="26" r="1.5"/><circle cx="38" cy="26" r="1.5"/><circle cx="44" cy="26" r="1.5"/>
    <circle cx="20" cy="32" r="1.5"/><circle cx="26" cy="32" r="1.5"/><circle cx="32" cy="32" r="2"/><circle cx="38" cy="32" r="1.5"/><circle cx="44" cy="32" r="1.5"/>
    <circle cx="20" cy="38" r="1.5"/><circle cx="26" cy="38" r="1.5"/><circle cx="32" cy="38" r="1.5"/><circle cx="38" cy="38" r="1.5"/><circle cx="44" cy="38" r="1.5"/>
    <circle cx="20" cy="44" r="1.5"/><circle cx="26" cy="44" r="1.5"/><circle cx="32" cy="44" r="1.5"/><circle cx="38" cy="44" r="1.5"/><circle cx="44" cy="44" r="1.5"/>
  </g>
</svg>
